<svg xmlns="http://www.w3.org/2000/svg" viewBox="0 0 2962.67 768.59"><defs><style>.cls-1{fill:#070707;}</style></defs><g id="Layer_2" data-name="Layer 2"><g id="logo"><path class="cls-1" d="M1631.86,369.43V506.3c-37.18,29.63-89.45,49.57-140.1,49.57-109.38,0-196.67-84.6-196.67-190.75s87.83-189.67,198.83-189.67c52.26,0,102.92,19.94,139,51.72l-24.79,32.34a173.29,173.29,0,0,0-114.23-43.65c-86.22,0-155.19,66.28-155.19,149.26,0,83.52,69.51,149.79,155.72,149.79,34,0,70.06-11.85,99.16-31.78V369.43Z"/><path class="cls-1" d="M2268.2,365.12c0,106.15-87.28,190.75-197.21,190.75-110.46,0-197.75-84.6-197.75-190.75,0-106.69,87.29-189.67,197.75-189.67C2180.92,175.45,2268.2,259,2268.2,365.12Zm-351.32,0c0,83,70,149.26,154.11,149.26s153-66.28,153-149.26-69-148.72-153-148.72S1916.88,282.14,1916.88,365.12Z"/><path class="cls-1" d="M2751,209.93l-18.32,40.41c-33.94-22.63-73.82-31.78-104-31.78-48.49,0-80.29,18.32-80.29,50.1,0,97,212.31,46.34,211.77,183.21,0,63-55.5,103.46-136.33,103.46-55,0-108.84-23.71-144.41-57.66l19.4-38.79c35,33.94,83,53.34,125.55,53.34,54.43,0,88.37-22.09,88.37-58.19.54-99.15-211.76-46.34-211.76-181.59,0-59.27,52.27-97.53,130.4-97.53C2675,174.91,2719.72,188.92,2751,209.93Z"/><path class="cls-1" d="M415.7,683.5v32.89h43.73v10.3H415.7v40.12H405V673.2h59.52v10.3Z"/><path class="cls-1" d="M599.6,728.29c0,24.35-14.71,39.06-39.19,39.06S521,752.64,521,728.29V673.2h10.7v55.09c0,18.2,11,28.76,28.75,28.76s28.49-10.56,28.49-28.76V673.2h10.7Z"/><path class="cls-1" d="M710.48,737c-2,.14-4.14.27-6.28.27H679.32v29.55H668.63V673.2H704.2c23.4,0,36.91,11.5,36.91,31.43,0,15.51-7.49,25.94-21,30.36l21.93,31.82H729.87Zm-6.28-10c17,0,26.61-7.49,26.61-22.07,0-14.18-9.62-21.39-26.61-21.39H679.32V727Z"/><path class="cls-1" d="M875,766.81l-56.17-75.16v75.16H808.13V673.2h11.1l56.16,75.29V673.2H886v93.61Z"/><path class="cls-1" d="M957.27,766.81V673.2H968v93.61Z"/><path class="cls-1" d="M1067.6,683.5v83.31h-10.7V683.5h-30.49V673.2h71.82v10.3Z"/><path class="cls-1" d="M1233.05,728.29c0,24.35-14.71,39.06-39.18,39.06s-39.46-14.71-39.46-39.06V673.2h10.7v55.09c0,18.2,11,28.76,28.76,28.76s28.48-10.56,28.48-28.76V673.2h10.7Z"/><path class="cls-1" d="M1343.93,737c-2,.14-4.14.27-6.29.27h-24.87v29.55h-10.7V673.2h35.57c23.41,0,36.92,11.5,36.92,31.43,0,15.51-7.49,25.94-21,30.36l21.93,31.82h-12.18Zm-6.29-10c17,0,26.62-7.49,26.62-22.07,0-14.18-9.63-21.39-26.62-21.39h-24.87V727Z"/><path class="cls-1" d="M1452.27,683.5v30.75h47.21v10.31h-47.21v32.09h54.57v10.16h-65.26V673.2h63.52v10.3Z"/><path class="cls-1" d="M1707.05,745.9a90.87,90.87,0,0,0,9.85-17.68l.31-.71-8.53-6.61-.5,1.23a88.31,88.31,0,0,1-8.56,16.48c-9.65-9.52-15.69-15.78-20.36-21.14,10-5.32,21.89-12.05,21.89-25,0-11.37-9.06-19.31-22-19.31-13.65,0-23.2,8.48-23.2,20.6,0,6.46,2.74,13,8.84,21.11-9.93,5.41-20.13,12.45-20.13,26.16,0,14.54,12.29,25.93,28,25.93,9.89,0,19.62-4.65,28.19-13.47l15.2,15.06,6.84-7.16Zm-27.94-63.69c7.13,0,11.73,4,11.73,10.3,0,8-7.17,12.58-17.4,17.93-5-6.86-7.22-12.06-7.22-16.76C1666.22,686.92,1671.52,682.21,1679.11,682.21Zm-8.66,39.88c6.2,7.17,14.45,15.53,23.12,24.19-6.45,6.81-13.54,10.41-20.56,10.41-10.33,0-17.83-6.9-17.83-16.4C1655.18,732.35,1661.25,727.23,1670.45,722.09Z"/><path class="cls-1" d="M1897.79,673.2c27.28,0,48.15,20.19,48.15,46.81s-21,46.8-48.55,46.8h-37.45V673.2Zm-27.15,83.45h27.29c20.86,0,37.17-15.65,37.17-36.51s-16.58-36.64-37.58-36.64h-26.88Z"/><path class="cls-1" d="M2019,683.5v30.75h47.21v10.31H2019v32.09h54.57v10.16h-65.27V673.2h63.52v10.3Z"/><path class="cls-1" d="M2195.65,681.49l-4.54,10a48.37,48.37,0,0,0-25.82-7.89c-12,0-19.92,4.54-19.92,12.44,0,24.07,52.69,11.5,52.55,45.47,0,15.65-13.77,25.68-33.83,25.68a53.42,53.42,0,0,1-35.84-14.32l4.82-9.63c8.68,8.44,20.59,13.25,31.15,13.25,13.51,0,21.94-5.49,21.94-14.45.13-24.6-52.56-11.5-52.56-45.06,0-14.72,13-24.21,32.36-24.21C2176.79,672.8,2187.89,676.27,2195.65,681.49Z"/><path class="cls-1" d="M2262.67,766.81V673.2h10.69v93.61Z"/><path class="cls-1" d="M2419.28,721.08v34a57.88,57.88,0,0,1-34.78,12.3c-27.14,0-48.8-21-48.8-47.34s21.79-47.08,49.34-47.08a53,53,0,0,1,34.5,12.84l-6.14,8A43.11,43.11,0,0,0,2385,683c-21.39,0-38.51,16.45-38.51,37s17.25,37.18,38.65,37.18a44.81,44.81,0,0,0,24.61-7.9V721.08Z"/><path class="cls-1" d="M2554.9,766.81l-56.17-75.16v75.16H2488V673.2h11.1l56.17,75.29V673.2h10.57v93.61Z"/><polygon class="cls-1" points="0 0 0 724.12 345.69 724.12 345.69 715.89 8.23 715.89 8.23 8.23 2954.44 8.23 2954.44 715.89 2632.11 715.89 2632.11 724.12 2962.67 724.12 2962.67 0 0 0"/><polygon class="cls-1" points="368.32 176.52 323.6 176.52 154.4 553.71 200.2 553.71 242.24 458.34 260.56 416.85 344.61 225.56 429.75 416.85 448.07 458.34 490.1 553.71 536.98 553.71 368.32 176.52"/><path class="cls-1" d="M976.11,425.47c54.43-17.78,84.6-59.81,84.6-122.32,0-80.29-54.42-126.63-148.72-126.63H777V218H912c68.43,0,107.23,29.09,107.23,86.21,0,58.73-38.8,88.91-107.23,88.91H777v41.49H912c8.62,0,17.24-.54,25.32-1.08l78.14,120.16h49Z"/></g></g></svg>